<?xml version="1.0" standalone="no"?>
<!DOCTYPE svg PUBLIC "-//W3C//DTD SVG 20010904//EN"
 "http://www.w3.org/TR/2001/REC-SVG-20010904/DTD/svg10.dtd">
<svg version="1.0" xmlns="http://www.w3.org/2000/svg"
 width="296.000000pt" height="217.000000pt" viewBox="0 0 296.000000 217.000000"
 preserveAspectRatio="xMidYMid meet">

<g transform="translate(0.000000,217.000000) scale(0.100000,-0.100000)"
fill="#fff" stroke="none">
<path d="M456 2149 c-65 -16 -156 -70 -182 -108 -48 -70 -34 -101 82 -190 28
-21 59 -56 69 -77 16 -35 17 -42 1 -120 -21 -106 -98 -332 -221 -649 -180
-464 -205 -548 -205 -689 0 -101 28 -175 89 -236 139 -138 339 -71 654 218
133 122 346 362 417 470 14 21 15 6 15 -165 1 -213 11 -269 72 -386 117 -223
404 -279 698 -137 379 183 766 657 923 1131 62 188 84 309 84 469 0 256 -54
389 -184 454 -43 22 -66 26 -133 26 -128 0 -215 -35 -263 -105 -32 -46 -28
-87 13 -148 69 -101 105 -258 105 -455 0 -184 -41 -350 -135 -549 -184 -388
-523 -639 -679 -502 -18 16 -44 53 -57 81 -21 47 -24 68 -24 183 0 233 60 417
285 880 96 196 113 239 117 292 7 77 -15 113 -85 140 -55 21 -193 24 -260 4
-68 -19 -96 -54 -176 -218 -146 -297 -335 -607 -516 -847 -172 -228 -363 -425
-471 -485 l-41 -23 7 33 c17 83 123 380 238 669 184 464 237 642 237 787 0 83
-22 135 -75 182 -68 59 -116 74 -245 77 -63 2 -132 -1 -154 -7z"/>
</g>
</svg>
